<?xml version="1.0" encoding="UTF-8"?>
<svg version="1.1" xmlns="http://www.w3.org/2000/svg" width="199" height="200">
<path d="M0 0 C2.875 2.5625 2.875 2.5625 5 5 C5.598125 5.598125 6.19625 6.19625 6.8125 6.8125 C8.62904089 10.15875953 8.75263933 13.34535711 8 17 C6 20 6 20 3 22 C-1.84108805 22.69158401 -3.86601403 22.63503214 -8.125 20.25 C-10.02877343 18.76009036 -11.92476939 17.26018449 -13.8125 15.75 C-17.9979697 13.45209507 -21.32041402 13.26746812 -26 14 C-29.76398568 15.7119187 -29.76398568 15.7119187 -32 19 C-32.50031206 22.41571853 -32.50031206 22.41571853 -32 26 C-27.75358888 30.17319714 -22.56409497 32.15510185 -17.17578125 34.44335938 C-15.41614751 35.22212797 -13.70331155 36.10472283 -12 37 C-11.67 37.99 -11.34 38.98 -11 40 C-12.64862234 42.49818268 -14.30798732 44.75015836 -16.1875 47.0625 C-16.68314453 47.69994141 -17.17878906 48.33738281 -17.68945312 48.99414062 C-22.29430181 54.76692979 -22.29430181 54.76692979 -26 56 C-29.3381594 55.09800582 -32.28291244 53.27328135 -35.3125 51.625 C-36.14201172 51.20605469 -36.97152344 50.78710938 -37.82617188 50.35546875 C-44.89301119 46.59615565 -51.74740373 40.96014092 -54.5546875 33.16015625 C-56.48294056 23.80643747 -55.47869538 15.85592255 -50.76953125 7.5625 C-45.49306705 -0.07847244 -37.81676461 -4.30344749 -28.875 -6.375 C-18.66956711 -7.94833757 -8.3573588 -6.20119587 0 0 Z " fill="#FFFFFF" transform="translate(123,57)"/>
<path d="M0 0 C4.55264185 1.51754728 6.63543325 5.06462566 9 9 C12.01715064 15.17797513 12.07134902 22.90064655 10.34765625 29.49609375 C6.86770005 38.11383937 0.43922816 45.09130485 -8 49 C-19.95601708 53.45209044 -30.22415741 52.8789936 -42 48 C-47.75964067 44.70348541 -52.99791782 40.00416436 -56 34 C-56.5730659 26.89398281 -56.5730659 26.89398281 -54.4375 23.5625 C-51.01756071 21.37023123 -49.09860365 20.86561955 -45 21 C-41.73901648 22.6645787 -38.90705754 24.78661193 -36 27 C-30.59749511 30.77355005 -26.77901763 32.57449302 -20 32 C-16.55636106 30.53790702 -16.55636106 30.53790702 -14 28 C-12.97455116 24.78692697 -12.64582959 22.92567266 -13.859375 19.75390625 C-14.05635876 15.89630755 -12.41283551 14.53237168 -9.91992188 11.73046875 C-9.34822266 11.11816406 -8.77652344 10.50585938 -8.1875 9.875 C-7.07571342 8.6442305 -5.9649953 7.41249478 -4.85546875 6.1796875 C-4.35684326 5.64069824 -3.85821777 5.10170898 -3.34448242 4.54638672 C-1.79516173 2.83067281 -1.79516173 2.83067281 0 0 Z " fill="#FFFFFF" transform="translate(125,99)"/>
<path d="M0 0 C2.92910116 3.07198415 3.97561741 4.80525304 4.0625 9.0625 C2.69295309 12.8488944 1.20447947 14.5618091 -2 17 C-3.093125 17.0825 -4.18625 17.165 -5.3125 17.25 C-11.00963119 18.40873855 -13.54025758 22.55175974 -17 27 C-20.0831351 25.80100302 -23.06279492 24.52299523 -26 23 C-26.43828125 23.55945313 -26.8765625 24.11890625 -27.328125 24.6953125 C-31.5603187 30.04576876 -35.87180119 35.33096901 -40.25 40.5625 C-40.75692383 41.18205566 -41.26384766 41.80161133 -41.78613281 42.43994141 C-46.08226608 47.52582591 -46.08226608 47.52582591 -50 48 C-51.75 46.5625 -51.75 46.5625 -53 45 C-51.63733356 40.96194134 -49.8590849 38.45631882 -46.9375 35.375 C-42.79732302 30.90866759 -38.9173634 26.29464708 -35.0859375 21.5625 C-32.44858732 18.32260914 -29.73591241 15.15682201 -27 12 C-26.2575 12.309375 -25.515 12.61875 -24.75 12.9375 C-21.44973417 14.29240141 -21.44973417 14.29240141 -18 15 C-16.12905797 14.13606305 -16.12905797 14.13606305 -15 12 C-14.74376167 9.98212315 -14.49085875 7.96304322 -14.3046875 5.9375 C-13.8881457 3.28872137 -12.91812741 1.84435328 -11 0 C-7.15053343 -1.28315552 -3.83059365 -1.24609673 0 0 Z " fill="#FFFFFF" transform="translate(154,70)"/>
<path d="M0 0 C2.8125 2.1875 2.8125 2.1875 5 5 C5.04382813 5.92683594 5.08765625 6.85367188 5.1328125 7.80859375 C6.46333587 12.7051595 9.91152116 14.26601586 14.0625 16.875 C15.20041992 17.62136719 15.20041992 17.62136719 16.36132812 18.3828125 C18.23074773 19.60557752 20.1095956 20.81003951 22 22 C21.75 24.375 21.75 24.375 21 27 C18.953125 28.1640625 18.953125 28.1640625 17 29 C16.55720703 28.63648437 16.11441406 28.27296875 15.65820312 27.8984375 C13.62119686 26.24509215 11.5614031 24.6228067 9.5 23 C8.80390625 22.42765625 8.1078125 21.8553125 7.390625 21.265625 C2.30759314 17.31215577 -0.5889698 16.41843787 -7 17 C-9.6891965 16.15078005 -10.62269404 15.52822835 -12.25 13.25 C-13.24517055 10.26448836 -13.38368557 8.13343215 -13 5 C-9.41449866 -0.56370897 -6.38923544 -1.78898592 0 0 Z " fill="#FFFFFF" transform="translate(58,88)"/>
<path d="M0 0 C2.625 0.375 2.625 0.375 5 1 C5.625 3.375 5.625 3.375 6 6 C5.34 6.66 4.68 7.32 4 8 C1.375 7.625 1.375 7.625 -1 7 C-1.625 4.625 -1.625 4.625 -2 2 C-1.34 1.34 -0.68 0.68 0 0 Z " fill="#FFFFFF" transform="translate(89,115)"/>
<path d="M0 0 C2.625 0.9375 2.625 0.9375 5 2 C4.67 3.98 4.34 5.96 4 8 C1.69 7.67 -0.62 7.34 -3 7 C-2.625 4.0625 -2.625 4.0625 -2 1 C-1.34 0.67 -0.68 0.34 0 0 Z " fill="#FFFFFF" transform="translate(53,72)"/>
<path d="M0 0 C1.65 0 3.3 0 5 0 C5.66 1.65 6.32 3.3 7 5 C5.75 6.5625 5.75 6.5625 4 8 C1.8125 7.6875 1.8125 7.6875 0 7 C-1.125 2.25 -1.125 2.25 0 0 Z " fill="#FFFFFF" transform="translate(147,122)"/>
<path d="M0 0 C2.375 -0.125 2.375 -0.125 5 0 C5.66 0.66 6.32 1.32 7 2 C6.625 4.625 6.625 4.625 6 7 C4.1875 7.625 4.1875 7.625 2 8 C1.01 7.34 0.02 6.68 -1 6 C-0.67 4.02 -0.34 2.04 0 0 Z " fill="#FFFFFF" transform="translate(147,107)"/>
<path d="M0 0 C2.625 0.375 2.625 0.375 5 1 C6.125 4.75 6.125 4.75 5 7 C3.02 7 1.04 7 -1 7 C-1.625 4.625 -1.625 4.625 -2 2 C-1.34 1.34 -0.68 0.68 0 0 Z " fill="#FFFFFF" transform="translate(52,119)"/>
</svg>
